<?xml version="1.0" encoding="utf-8"?>
<!-- Generator: Adobe Illustrator 24.0.1, SVG Export Plug-In . SVG Version: 6.00 Build 0)  -->
<svg version="1.1" id="Layer_1" focusable="false" xmlns="http://www.w3.org/2000/svg" xmlns:xlink="http://www.w3.org/1999/xlink"
	 x="0px" y="0px" viewBox="0 0 480 512" style="enable-background:new 0 0 480 512;" xml:space="preserve">
<style type="text/css">
	.st0{fill:#474747;}
</style>
<path class="st0" d="M438.7,212.3l-11.2-28.1l-19.9-49.8C390.4,91.6,349.6,64,303.5,64h-127c-46.1,0-86.9,27.6-104,70.4l-19.9,49.8
	l-11.2,28.1C17.2,221.5,0,244.7,0,272v48c0,16.1,6.2,30.7,16,41.9V416c0,17.7,14.3,32,32,32h32c17.7,0,32-14.3,32-32v-32h256v32
	c0,17.7,14.3,32,32,32h32c17.7,0,32-14.3,32-32v-54.1c9.8-11.3,16-25.8,16-41.9v-48C480,244.7,462.8,221.5,438.7,212.3z
	 M131.9,158.2c7.3-18.2,24.9-30.2,44.6-30.2h127c19.6,0,37.3,11.9,44.6,30.2L368,208H112L131.9,158.2z M80,319.8
	c-19.2,0-32-12.8-32-31.9S60.8,256,80,256s48,28.7,48,47.9S99.2,319.8,80,319.8L80,319.8z M400,319.8c-19.2,0-48,3.2-48-16
	s28.8-47.8,48-47.8s32,12.8,32,31.9S419.2,319.8,400,319.8z"/>
</svg>
