<?xml version="1.0" encoding="utf-8"?>
<!-- Generator: Adobe Illustrator 24.0.1, SVG Export Plug-In . SVG Version: 6.00 Build 0)  -->
<svg version="1.1" id="Layer_1" xmlns="http://www.w3.org/2000/svg" xmlns:xlink="http://www.w3.org/1999/xlink" x="0px" y="0px"
	 viewBox="0 0 1000 1000" style="enable-background:new 0 0 1000 1000;" xml:space="preserve">
<style type="text/css">
	.st0{fill:#474747;}
</style>
<g>
	<g transform="translate(0.000000,400.000000) scale(0.100000,-0.100000)">
		<path class="st0" d="M4160.6,2818.6c-23-3.8-61.3-28.7-86.2-55.6c-46-47.9-46-55.6-51.7-502.1c-5.8-504,0-527,111.1-582.6
			c57.5-28.7,124.6-34.5,465.6-34.5h396.7v-285.5V1071l-550-5.8c-753.1-7.7-632.4,59.4-1299.2-714.8l-396.7-459.9l-327.7-9.6
			c-321.9-9.6-331.5-11.5-433.1-67.1c-130.3-70.9-239.5-195.5-289.4-327.7c-32.6-90.1-38.3-149.5-38.3-438.8V-1288h-201.2h-201.2
			v525v527l-46,53.7l-46,53.7h-481h-481l-51.7-53.7L100-234v-1648v-1648l53.7-51.8l51.7-53.6h479.1c471.4,0,479.1,0,521.2,44.1
			c44.1,42.2,44.1,49.8,49.8,578.7l5.8,536.6h199.3h201.2v-335.4c0-408.2,24.9-496.3,180.1-653.5c153.3-151.4,251-180.1,611.3-180.1
			h291.3l450.3-521.2c482.9-559.5,544.2-613.2,732-647.7c70.9-13.4,561.5-19.2,1418-15.3l1308.8,5.8l105.4,49.8
			c88.1,42.1,228,172.5,871.9,829.7C8548.8-3012.6,8522-3049,8522-2704.1v228h95.8h95.8V-2844c0-402.4,13.4-482.9,88.1-553.8
			l49.8-46h467.6h467.6l51.7,53.6l53.7,51.8l5.7,1619.2c5.7,1766.8,7.7,1730.4-101.6,1772.5C9767.4,64.8,9549,72.5,9298,72.5
			c-446.5,0-448.4,0-502.1-46l-53.7-46l-9.6-438.8l-9.6-436.9h-95.8h-95.8l-9.6,785.7c-9.6,760.8-11.5,787.6-51.7,862.3
			c-57.5,105.4-168.6,210.8-283.6,262.5c-95.8,44.1-99.6,44.1-1057.8,49.8L6165,1071v285.5V1642l431.2,5.8l431.2,5.7l61.3,63.2
			l63.2,61.3v456.1c0,423.5-1.9,458-38.3,505.9c-21.1,28.7-63.2,61.3-93.9,72.8C6966,2832,4256.4,2837.7,4160.6,2818.6z
			 M6759,2239.9v-191.6l-431.2-5.8l-431.2-5.7l-51.7-53.7l-53.7-51.7l-5.7-431.2l-5.7-431.2h-201.2h-199.3v421.6v421.6l-55.6,61.3
			l-55.6,63.2l-433.1,5.7l-433.1,5.8v191.6v189.7h1178.5H6759V2239.9z M8083.2,611l55.6-55.6v-856.6v-856.6l65.2-65.1l65.1-65.1
			h356.4h356.4l61.3,55.6l63.2,55.6l5.8,433.1l5.7,433.1h191.6h189.7v-1370.1v-1370.1h-189.7h-191.6l-5.7,431.2l-5.8,431.2
			l-53.6,51.7L9001-2083h-373.7h-373.7l-51.7-53.7c-53.7-51.7-53.7-53.7-63.2-383.3c-7.7-270.2-15.3-339.2-42.1-379.4
			c-17.2-24.9-362.2-381.3-766.5-789.5l-733.9-743.5l-1306.9,1.9c-718.6,0-1318.4,5.7-1335.6,11.5
			c-17.2,5.7-235.7,249.1-488.6,540.4c-251,293.2-475.2,548.1-500.1,569.2c-38.3,34.5-76.7,38.3-402.4,47.9
			c-327.7,9.6-366,13.4-415.8,49.8c-99.6,72.8-99.6,82.4-99.6,1329.9s0,1257.1,99.6,1329.9c49.8,36.4,88.1,40.2,413.9,49.8
			c281.7,7.7,367.9,15.3,394.8,38.3c19.2,15.3,245.3,272.1,502.1,569.1s477.1,544.2,490.6,548c11.5,5.8,935.1,11.5,2050.4,11.5
			l2029.3,1.9L8083.2,611z M876.1-1014c0-567.2,3.8-586.4,115-641.9c55.6-28.8,120.7-34.5,369.8-34.5h300.9v-189.7v-189.7
			l-335.3-7.7l-335.3-5.7l-51.7-53.7l-53.7-51.7l-5.7-538.5l-5.8-536.6l-195.5,5.7l-195.5,5.8l-5.7,1351
			c-1.9,743.5,0,1362.5,5.7,1375.9c5.7,15.3,65.2,23,201.2,23h191.6V-1014z"/>
		<path class="st0" d="M4904.1-1086.8c-264.5-532.7-482.9-971.6-482.9-977.3c0-5.8,216.5-9.6,479.1-9.6
			c264.4,0,479.1-5.8,479.1-15.4c0-7.7-128.4-400.5-287.4-873.8c-157.1-473.3-279.8-852.7-270.2-843.2s360.3,486.7,778,1061.6
			L6358.5-1700l-482.9,5.7c-371.8,3.9-479.1,9.6-471.4,28.8c3.8,11.5,220.4,362.2,481,774.2c258.7,413.9,471.4,756.9,471.4,762.7
			c0,5.7-218.5,9.6-484.8,9.6h-482.9L4904.1-1086.8z"/>
	</g>
</g>
</svg>
