<?xml version="1.0" encoding="utf-8"?>
<!-- Generator: Adobe Illustrator 24.0.1, SVG Export Plug-In . SVG Version: 6.00 Build 0)  -->
<svg version="1.1" id="Layer_1" xmlns="http://www.w3.org/2000/svg" xmlns:xlink="http://www.w3.org/1999/xlink" x="0px" y="0px"
	 viewBox="0 0 1000 1000" style="enable-background:new 0 0 1000 1000;" xml:space="preserve">
<style type="text/css">
	.st0{fill:#474747;}
</style>
<g>
	<g transform="translate(0.000000,511.000000) scale(0.100000,-0.100000)">
		<path class="st0" d="M4557.2,4999.5c-912.9-95.8-1755.5-426.2-2500.3-983.3c-244.4-181.8-776.1-713.5-956-956
			C432.3,2162.9,100,1181.5,100,100.5c0-1634.3,834.8-3153.3,2252.1-4099.5c420.3-277.6,1038.1-545.4,1550.2-664.7
			c1155.4-271.7,2377.2-103.6,3415.2,469.2C8467-3563,9315.5-2523,9696.7-1285.6C9839.4-820.3,9900-402,9900,122
			c-2,758.5-156.4,1427.1-492.6,2111.3C8678.2,3719,7296,4729.7,5663.7,4972.1C5425.2,5007.3,4787.9,5022.9,4557.2,4999.5z
			 M5612.9,4557.7c1128-144.7,2187.6-740.9,2899.1-1630.4c469.2-586.5,782-1290.2,916.9-2072.2c58.7-334.3,64.5-1108.4,9.8-1436.8
			C9274.5-1565,8858.1-2392,8185.6-3066.4c-1044-1044-2547.3-1503.4-4025.2-1229.7C2426.4-3975.5,1059.9-2681.3,639.6-961
			C547.7-583.8,522.3-341.4,522.3,112.2c0,752.6,134.9,1350.8,457.4,2003.8c234.6,477,498.5,838.7,891.4,1223.8
			C2856.4,4301.6,4201.4,4739.5,5612.9,4557.7z"/>
		<path class="st0" d="M2932.7,2870.6c-351.9-111.4-590.4-479-523.9-803.5c45-219,215-439.9,406.6-529.8l97.7-46.9l2-1272.7V-1055
			l-97.7-44.9c-119.2-56.7-301.1-240.5-353.8-359.7c-121.2-273.7-72.3-527.8,142.7-764.4c62.5-70.4,142.7-129,226.8-170.1
			c113.4-56.7,148.6-64.5,287.4-64.5c136.8,0,174,7.8,285.4,62.5c160.3,80.1,293.2,217,373.4,387.1
			c52.8,115.3,58.6,142.7,52.8,289.3c-5.9,129-19.6,181.8-64.5,273.7c-66.5,131-224.8,287.4-351.9,349.9l-89.9,43v582.6v582.6h625.6
			H4577v-582.6v-582.6l-89.9-43c-205.3-99.7-375.3-322.6-418.4-545.4c-52.8-283.5,132.9-608,426.2-752.6
			c113.4-56.7,148.6-64.5,287.4-64.5c129,0,175.9,9.8,265.9,50.8c361.7,170.1,537.6,559.1,408.6,901.2
			c-50.8,138.8-203.3,310.8-346,391l-103.6,58.6v584.5V112h957.9c1032.2,0,1043.9,2,1096.7,101.7c15.7,29.3,21.5,222.9,19.6,652.9
			l-3.9,611.9l109.5,52.8c150.5,74.3,324.5,263.9,381.2,412.5c35.2,91.9,41,142.7,35.2,269.8c-11.7,193.5-70.4,322.6-218.9,467.2
			c-119.2,119.3-244.4,183.8-408.6,213.1c-107.5,17.6-138.8,15.6-258-21.5c-80.2-25.4-177.9-74.3-234.6-117.3
			c-293.2-222.9-391-561.1-246.3-854.3c74.3-148.6,209.2-291.3,340.1-361.7l91.9-48.9v-482.9V522.7h-830.8h-830.8v486.8
			c0,469.2,2,488.7,39.1,500.5c72.3,23.5,238.5,162.3,312.8,262c154.4,205.3,183.8,455.5,82.1,674.4
			c-105.6,226.8-281.5,373.4-516.1,436c-111.4,29.3-146.6,31.3-242.4,9.8c-248.3-50.8-434-195.5-547.4-422.3
			c-56.7-115.3-70.4-166.2-70.4-267.8c-3.9-158.3,45-301.1,140.8-430.1c80.2-107.5,250.2-246.3,324.5-263.9l46.9-11.7v-486.8V522.7
			l-619.7,3.9l-621.7,5.9l-5.9,471.1l-3.9,473.1l103.6,58.6c144.7,82.1,312.8,269.8,365.6,408.6c56.7,150.5,48.9,383.2-17.6,514.1
			c-109.5,213.1-291.3,365.6-500.5,420.3C3130.1,2915.5,3069.5,2913.6,2932.7,2870.6z M3302.2,2438.5
			c78.2-48.9,121.2-142.7,121.2-269.8c0-232.6-232.6-363.6-461.4-260c-97.7,45-144.7,132.9-144.7,275.6
			c0,195.5,101.7,293.2,303,293.2C3204.4,2477.6,3257.2,2465.9,3302.2,2438.5z M4963.8,2438.5c113.4-70.4,158.4-277.6,89.9-422.3
			c-60.6-129-267.8-179.9-430.1-107.5c-95.8,43-144.7,132.9-144.7,263.9c0,203.3,99.7,305,303,305
			C4866.1,2477.6,4918.9,2465.9,4963.8,2438.5z M7075.1,2438.5c78.2-48.9,121.2-142.7,121.2-269.8c0-232.6-232.6-363.6-461.3-260
			c-97.8,45-144.7,132.9-144.7,275.6c0,195.5,101.7,293.2,303,293.2C6977.4,2477.6,7030.2,2465.9,7075.1,2438.5z M3300.2-1481.1
			c89.9-58.6,125.1-144.7,119.2-277.6c-11.7-195.5-107.5-287.4-299.1-287.4c-123.2,0-201.4,37.1-260,125.1
			c-39.1,58.6-45,86-39.1,199.4s15.6,138.8,64.5,191.6c31.3,33.2,84.1,68.4,117.3,78.2C3081.2-1426.3,3241.6-1443.9,3300.2-1481.1z
			 M4961.9-1481.1c80.1-52.8,123.2-144.7,123.2-265.9c0-191.6-109.5-299.1-303-299.1c-191.6,0-303,107.5-303,295.2
			c0,156.4,66.5,260,187.7,299.1C4742.9-1426.3,4903.2-1443.9,4961.9-1481.1z"/>
		<path class="st0" d="M6377.2-732.3c-25.4-13.7-62.5-46.9-82.1-74.3c-37.1-50.8-43-262-39.1-1198.4l1.9-330.4l68.4-68.4
			c62.6-62.5,76.2-68.4,152.5-58.6c58.7,7.8,97.8,29.3,136.9,72.4c50.8,56.7,52.8,66.5,52.8,293.2v234.6h97.7h95.8l189.6-263.9
			c103.6-144.7,211.2-283.5,240.5-305c115.3-91.9,314.7,15.6,314.7,168.1c0,64.5-27.4,113.4-234.6,404.6l-64.5,91.9l101.7,97.7
			c129,127.1,185.7,248.3,185.7,402.7c0,197.4-132.9,392.9-336.3,492.6c-107.5,52.8-123.1,54.8-473.1,60.6
			C6518-708.9,6412.4-714.7,6377.2-732.3z M7153.3-1162.4c31.3-27.4,29.3-175.9-3.9-222.9c-25.4-31.3-56.7-37.1-254.1-43l-226.8-7.8
			v148.6v146.6l152.5,7.8C6998.9-1125.3,7118.2-1135,7153.3-1162.4z"/>
	</g>
</g>
</svg>
