<?xml version="1.0" encoding="utf-8"?>
<!-- Generator: Adobe Illustrator 24.0.1, SVG Export Plug-In . SVG Version: 6.00 Build 0)  -->
<svg version="1.1" id="Layer_1" xmlns="http://www.w3.org/2000/svg" xmlns:xlink="http://www.w3.org/1999/xlink" x="0px" y="0px"
	 viewBox="0 0 500 500" style="enable-background:new 0 0 500 500;" xml:space="preserve">
<style type="text/css">
	.st0{fill:#474747;}
</style>
<g transform="translate(0.000000,500.000000) scale(0.100000,-0.100000)">
	<path class="st0" d="M-23.4,1959.7c-10.9-23.2-18.5-59.5-17.2-82.3l2.5-40.8l670.3-798.9l670.4-798.9l39.7-9.6
		c23.9-5.8,58.6-4.8,85.3,2.6l44.3,12.2l1758.8,1475.8l1758.8,1475.8l19.7,41.5c12,25.1,19,58.9,17.4,83.5l-2.5,40.8l-670.3,798.9
		l-670.3,798.9l-39.7,9.6c-23.9,5.8-58.6,4.8-85.3-2.6l-44.3-12.2L1754.5,3477.5L-5,2001.1L-23.4,1959.7z M4204.9,4035.5
		l560.9-677.2L3058.2,1925.5L1346.6,495.8l-565.4,666.7l-571,680.5l1693.7,1458.2l1718,1429.2L4204.9,4035.5z"/>
	<path class="st0" d="M1477,2802.4l-22.3-27.1l503.4-600l502.4-598.7l162.6,146.7c176.8,158.6,201.8,192,219.8,308.2
		c19.1,117-11.9,220.9-101.6,337.3c-39.8,51.2-94.3,108.6-120.2,127.9c-64.9,48.7-181.7,80.6-250.1,68.5l-57-8.6l12,69.8
		c8,49.9,2.3,96.7-18.3,157.7c-27,76.2-39.4,96.8-104.2,166.2c-120.2,127.9-234.3,168.2-368.8,129.6
		c-51.9-14.7-93.6-43.5-200.9-135.6C1558.6,2881.1,1489.2,2816.6,1477,2802.4z M1922.6,2830c129.9-20.9,235-213.1,173.8-318.1
		c-43-71.2-36-75.6-181.2,97.4l-134,159.7l52.2,33.5C1862.8,2820.9,1902,2833.4,1922.6,2830z M2322.4,2330.6
		c106.8,2.9,220.7-87,249-197.2c20.1-73.8,8.5-124.9-38.5-168.4l-38.5-36.4l-148,170.7l-147,169.4l35.8,30.1
		C2255,2315.3,2294.3,2329.6,2322.4,2330.6z"/>
	<path class="st0" d="M886.4,2282.1c13.8-29.8,766.8-1325.2,778.9-1339.6c7.1-8.4,44.1,14.4,104.4,64.9l92.3,77.5l-51.7,86.5
		c-28.9,46-70.1,114.3-91,150.5l-39.3,65.9l84.1,64.4l84.1,64.4l126.3-110.3l126.5-110.5l100.1,77.8c90.5,71.9,97.1,79.4,76.1,94.9
		c-12,10.5-271.8,235.9-575.7,502.3S1139.1,2463.2,1126,2473c-19.9,14.1-36.1,4.8-135-78.2C909,2325.9,880.1,2295.4,886.4,2282.1z
		 M1639,1718c16.1-17.3,10.7-28.1-40.2-70.7l-59.4-49.8l-143.2,226.1c-79.2,123.1-151.5,239.9-162.9,259.2
		C1216.8,2112.1,1577.3,1787.8,1639,1718z"/>
	<path class="st0" d="M3027.8,3988.3c-38.2-124.7-42.9-155.6-23.6-178.6c27.4-32.6,161.6-144.7,177.2-148.1
		c5.9-1.3,24.5,47.3,40.7,108.4c17.2,59.8,31.9,111.3,34.7,113.7c1.9,1.6,184.4-212.2,404.6-474.7l400.9-477.8l94.2,79l94.2,79
		l-502.5,598.9l-502.4,598.7l-85.6-74C3073.7,4140,3071.9,4138.4,3027.8,3988.3z"/>
	<path class="st0" d="M2704.1,2811.9l101.5-120.9L2994,2849l188.4,158.1L3080.9,3128L2979.5,3249l-188.4-158.1l-188.4-158.1
		L2704.1,2811.9z"/>
</g>
</svg>
