<?xml version="1.0" encoding="utf-8"?>
<!-- Generator: Adobe Illustrator 24.0.1, SVG Export Plug-In . SVG Version: 6.00 Build 0)  -->
<svg version="1.1" id="Layer_1" xmlns="http://www.w3.org/2000/svg" xmlns:xlink="http://www.w3.org/1999/xlink" x="0px" y="0px"
	 viewBox="0 0 102 127.5" style="enable-background:new 0 0 102 127.5;" xml:space="preserve">
<style type="text/css">
	.st0{fill:#474747;}
</style>
<g>
	<path class="st0" d="M66.4,6.9c-7.9-2.6-16.3-4-25.1-4s-17.2,1.4-25.1,4v5.9h50.2V6.9z"/>
	<rect x="16.2" y="16.1" class="st0" width="50.2" height="3.4"/>
	<path class="st0" d="M58.2,56.5v2h8.2V22.8H16.2v35.7h8.2v-2c0-3.7,3-6.7,6.7-6.7h20.5C55.3,49.8,58.2,52.8,58.2,56.5z M41.3,39.3
		c-3.5,0-6.3-2.8-6.3-6.3s2.8-6.3,6.3-6.3s6.3,2.8,6.3,6.3C47.7,36.5,44.8,39.3,41.3,39.3z"/>
	<path class="st0" d="M78.3,92.5L73,93.8c0,0-0.8-0.4-2.1-1.3c0,0-0.1-0.1-0.2-0.1c-2.7-2-7.3-6.1-10.3-13.1
		c-2.2-5-5.6-17.5-8.1-27.3H39.9c2.5,10.1,5.8,24.8,6.3,30.8c0.6,7.7-1.5,13.4-3,16.4c0,0.1-0.1,0.1-0.1,0.2
		c-0.7,1.4-1.2,2.2-1.2,2.2l-5.3,1.3l4.7,18.8l5.8-1.4c4.4,4.3,10.9,6.3,17.3,4.7c6.4-1.6,11.2-6.4,13.1-12.2l5.8-1.4L78.3,92.5z
		 M68.4,114.9c-1.5,1.7-3.5,3-5.9,3.6s-4.8,0.4-6.9-0.4c-3.5-1.3-6.3-4.3-7.3-8.2c-1-3.9,0.2-7.8,2.6-10.6c1.5-1.7,3.5-3,5.9-3.6
		s4.8-0.4,6.9,0.4l0,0c3.5,1.3,6.3,4.3,7.3,8.2C72.1,108.2,70.9,112.1,68.4,114.9z"/>
</g>
</svg>
