<?xml version="1.0" encoding="utf-8"?>
<!-- Generator: Adobe Illustrator 24.0.1, SVG Export Plug-In . SVG Version: 6.00 Build 0)  -->
<svg version="1.1" id="Layer_1" focusable="false" xmlns="http://www.w3.org/2000/svg" xmlns:xlink="http://www.w3.org/1999/xlink"
	 x="0px" y="0px" viewBox="0 0 640 512" style="enable-background:new 0 0 640 512;" xml:space="preserve">
<style type="text/css">
	.st0{fill:#474747;}
</style>
<path class="st0" d="M624,224h-16v-64c0-17.7-14.3-32-32-32h-73.6L419.2,24c-12.1-15.2-30.5-24-50-24H256c-17.7,0-32,14.3-32,32v96
	H48c-8.8,0-16,7.2-16,16v80H16c-8.8,0-16,7.2-16,16v32c0,8.8,7.2,16,16,16h16.7c29.2-38.6,75.1-64,127.3-64s98.1,25.4,127.3,64h65.4
	c29.2-38.6,75.1-64,127.3-64s98.1,25.4,127.3,64H624c8.8,0,16-7.2,16-16v-32C640,231.2,632.8,224,624,224z M288,128V64h81.2l51.2,64
	H288z M592,352h-5.2c-2.2-7.3-5.1-14.3-8.7-20.9l3.7-3.7c6.3-6.3,6.3-16.4,0-22.6l-22.6-22.6c-6.3-6.3-16.4-6.3-22.6,0l-3.7,3.7
	c-6.7-3.6-13.7-6.5-20.9-8.6V272c0-8.8-7.2-16-16-16h-32c-8.8,0-16,7.2-16,16v5.2c-7.3,2.2-14.3,5.1-20.9,8.6l-3.7-3.7
	c-6.3-6.3-16.4-6.3-22.6,0l-22.6,22.6c-6.3,6.3-6.3,16.4,0,22.6l3.7,3.7c-3.6,6.7-6.5,13.7-8.6,20.9H368c-8.8,0-16,7.2-16,16v32
	c0,8.8,7.2,16,16,16h5.2c2.2,7.3,5.1,14.3,8.6,20.9l-3.7,3.7c-6.3,6.3-6.3,16.4,0,22.6l22.6,22.6c6.3,6.3,16.4,6.3,22.6,0l3.7-3.7
	c6.6,3.6,13.6,6.5,20.9,8.6v5.2c0,8.8,7.2,16,16,16h32c8.8,0,16-7.2,16-16v-5.2c7.3-2.2,14.3-5.1,20.9-8.6l3.7,3.7
	c6.3,6.3,16.4,6.3,22.6,0l22.6-22.6c6.3-6.3,6.3-16.4,0-22.6l-3.7-3.7c3.6-6.7,6.5-13.7,8.7-20.9h5.2c8.8,0,16-7.2,16-16v-32
	C608,359.2,600.8,352,592,352L592,352z M480,432c-26.5,0-48-21.5-48-48s21.5-48,48-48s48,21.5,48,48S506.5,432,480,432z M272,352
	h-5.2c-2.2-7.3-5.1-14.3-8.6-20.9l3.7-3.7c6.3-6.3,6.3-16.4,0-22.6l-22.6-22.6c-6.3-6.3-16.4-6.3-22.6,0l-3.7,3.7
	c-6.7-3.6-13.7-6.5-20.9-8.6V272c0-8.8-7.2-16-16-16h-32c-8.8,0-16,7.2-16,16v5.2c-7.3,2.2-14.3,5.1-20.9,8.6l-3.7-3.7
	c-6.3-6.3-16.4-6.3-22.6,0l-22.6,22.6c-6.3,6.3-6.3,16.4,0,22.6l3.7,3.7c-3.6,6.7-6.5,13.7-8.7,20.9H48c-8.8,0-16,7.2-16,16v32
	c0,8.8,7.2,16,16,16h5.2c2.2,7.3,5.1,14.3,8.6,20.9l-3.7,3.7c-6.3,6.3-6.3,16.4,0,22.6l22.6,22.6c6.3,6.3,16.4,6.3,22.6,0l3.7-3.7
	c6.6,3.6,13.6,6.5,20.9,8.6v5.2c0,8.8,7.2,16,16,16h32c8.8,0,16-7.2,16-16v-5.2c7.3-2.2,14.3-5.1,20.9-8.6l3.7,3.7
	c6.3,6.3,16.4,6.3,22.6,0l22.6-22.6c6.3-6.3,6.3-16.4,0-22.6l-3.7-3.7c3.6-6.7,6.5-13.7,8.6-20.9h5.2c8.8,0,16-7.2,16-16v-32
	C288,359.2,280.8,352,272,352z M160,432c-26.5,0-48-21.5-48-48s21.5-48,48-48s48,21.5,48,48S186.5,432,160,432z"/>
</svg>
